<svg xmlns="http://www.w3.org/2000/svg" xmlns:xlink="http://www.w3.org/1999/xlink" width="200" zoomAndPan="magnify" viewBox="0 0 150 149.999998" height="200" preserveAspectRatio="xMidYMid meet" version="1.0"><defs><clipPath id="315f650401"><path d="M 22 27 L 134 27 L 134 138.808594 L 22 138.808594 Z M 22 27 " clip-rule="nonzero"/></clipPath><clipPath id="4f9f6f23c0"><path d="M 135 17 L 147.671875 17 L 147.671875 138.808594 L 135 138.808594 Z M 135 17 " clip-rule="nonzero"/></clipPath><clipPath id="c72673760c"><path d="M 2.171875 23 L 23 23 L 23 138.808594 L 2.171875 138.808594 Z M 2.171875 23 " clip-rule="nonzero"/></clipPath></defs><g clip-path="url(#315f650401)"><path fill="#e9212b" d="M 77.875 27.023438 C 47.105469 27.023438 22.160156 51.96875 22.160156 82.742188 C 22.160156 113.511719 47.105469 138.457031 77.875 138.457031 C 108.648438 138.457031 133.589844 113.511719 133.589844 82.742188 C 133.589844 51.96875 108.640625 27.023438 77.875 27.023438 Z M 77.875 126.902344 C 53.484375 126.902344 33.707031 107.125 33.707031 82.734375 C 33.707031 58.34375 53.484375 38.566406 77.875 38.566406 C 102.269531 38.566406 122.042969 58.34375 122.042969 82.734375 C 122.042969 107.125 102.269531 126.902344 77.875 126.902344 Z M 77.875 126.902344 " fill-opacity="1" fill-rule="nonzero"/></g><path fill="#e9212b" d="M 116.882812 82.734375 C 116.882812 84.011719 116.820312 85.285156 116.695312 86.558594 C 116.570312 87.828125 116.382812 89.089844 116.132812 90.34375 C 115.882812 91.597656 115.574219 92.835938 115.203125 94.058594 C 114.832031 95.28125 114.402344 96.480469 113.914062 97.660156 C 113.425781 98.84375 112.878906 99.996094 112.277344 101.121094 C 111.675781 102.25 111.019531 103.34375 110.308594 104.40625 C 109.597656 105.46875 108.839844 106.492188 108.027344 107.480469 C 107.21875 108.46875 106.363281 109.414062 105.457031 110.316406 C 104.554688 111.21875 103.609375 112.078125 102.621094 112.886719 C 101.632812 113.699219 100.609375 114.457031 99.546875 115.167969 C 98.484375 115.878906 97.390625 116.535156 96.265625 117.136719 C 95.136719 117.738281 93.984375 118.285156 92.804688 118.773438 C 91.625 119.261719 90.421875 119.691406 89.199219 120.0625 C 87.976562 120.433594 86.738281 120.742188 85.484375 120.992188 C 84.234375 121.242188 82.972656 121.429688 81.699219 121.554688 C 80.429688 121.679688 79.152344 121.742188 77.875 121.742188 C 76.597656 121.742188 75.324219 121.679688 74.054688 121.554688 C 72.78125 121.429688 71.519531 121.242188 70.265625 120.992188 C 69.011719 120.742188 67.777344 120.433594 66.554688 120.0625 C 65.332031 119.691406 64.128906 119.261719 62.949219 118.773438 C 61.769531 118.285156 60.617188 117.738281 59.488281 117.136719 C 58.363281 116.535156 57.269531 115.878906 56.207031 115.167969 C 55.144531 114.457031 54.117188 113.699219 53.132812 112.886719 C 52.144531 112.078125 51.199219 111.21875 50.292969 110.316406 C 49.390625 109.414062 48.535156 108.46875 47.722656 107.480469 C 46.914062 106.492188 46.152344 105.46875 45.445312 104.40625 C 44.734375 103.34375 44.078125 102.25 43.476562 101.121094 C 42.875 99.996094 42.328125 98.84375 41.839844 97.660156 C 41.351562 96.480469 40.921875 95.28125 40.550781 94.058594 C 40.179688 92.835938 39.867188 91.597656 39.621094 90.34375 C 39.371094 89.089844 39.183594 87.828125 39.058594 86.558594 C 38.933594 85.285156 38.871094 84.011719 38.871094 82.734375 C 38.871094 81.457031 38.933594 80.183594 39.058594 78.910156 C 39.183594 77.640625 39.371094 76.378906 39.621094 75.125 C 39.867188 73.871094 40.179688 72.632812 40.550781 71.410156 C 40.921875 70.1875 41.351562 68.988281 41.839844 67.808594 C 42.328125 66.628906 42.875 65.472656 43.476562 64.347656 C 44.078125 63.21875 44.734375 62.125 45.445312 61.0625 C 46.152344 60 46.914062 58.976562 47.722656 57.988281 C 48.535156 57 49.390625 56.054688 50.292969 55.152344 C 51.199219 54.25 52.144531 53.390625 53.132812 52.582031 C 54.117188 51.773438 55.144531 51.011719 56.207031 50.300781 C 57.269531 49.59375 58.363281 48.9375 59.488281 48.332031 C 60.617188 47.730469 61.769531 47.1875 62.949219 46.695312 C 64.128906 46.207031 65.332031 45.777344 66.554688 45.40625 C 67.777344 45.035156 69.011719 44.726562 70.265625 44.476562 C 71.519531 44.226562 72.78125 44.042969 74.054688 43.914062 C 75.324219 43.789062 76.597656 43.726562 77.875 43.726562 C 79.152344 43.726562 80.429688 43.789062 81.699219 43.914062 C 82.972656 44.042969 84.234375 44.226562 85.484375 44.476562 C 86.738281 44.726562 87.976562 45.035156 89.199219 45.40625 C 90.421875 45.777344 91.625 46.207031 92.804688 46.695312 C 93.984375 47.1875 95.136719 47.730469 96.265625 48.332031 C 97.390625 48.9375 98.484375 49.59375 99.546875 50.300781 C 100.609375 51.011719 101.632812 51.773438 102.621094 52.582031 C 103.609375 53.390625 104.554688 54.25 105.457031 55.152344 C 106.363281 56.054688 107.21875 57 108.027344 57.988281 C 108.839844 58.976562 109.597656 60 110.308594 61.0625 C 111.019531 62.125 111.675781 63.21875 112.277344 64.347656 C 112.878906 65.472656 113.425781 66.628906 113.914062 67.808594 C 114.402344 68.988281 114.832031 70.1875 115.203125 71.410156 C 115.574219 72.632812 115.882812 73.871094 116.132812 75.125 C 116.382812 76.378906 116.570312 77.640625 116.695312 78.910156 C 116.820312 80.183594 116.882812 81.457031 116.882812 82.734375 Z M 116.882812 82.734375 " fill-opacity="1" fill-rule="nonzero"/><g clip-path="url(#4f9f6f23c0)"><path fill="#e9212b" d="M 141.191406 23.285156 C 134.21875 35.808594 134.382812 48.121094 139.527344 64.023438 C 139.527344 64.023438 141.828125 71.53125 140.125 77.828125 C 139.6875 79.429688 139.527344 81.09375 139.527344 82.75 L 139.519531 134.292969 C 139.519531 136.71875 141.628906 138.679688 144.105469 138.425781 C 146.261719 138.207031 147.835938 136.261719 147.835938 134.09375 L 147.835938 92.71875 L 147.839844 79.675781 L 147.835938 23.292969 C 147.847656 23.285156 147.847656 11.332031 141.191406 23.285156 Z M 141.191406 23.285156 " fill-opacity="1" fill-rule="nonzero"/></g><g clip-path="url(#c72673760c)"><path fill="#e9212b" d="M 20.214844 23.796875 L 19.984375 23.796875 C 18.90625 23.796875 18.039062 46.175781 18.039062 46.175781 C 18.039062 47.113281 17.351562 47.90625 16.425781 48.042969 C 15.289062 48.207031 14.269531 47.328125 14.269531 46.175781 C 14.269531 46.175781 13.394531 23.796875 12.324219 23.796875 L 12.0625 23.796875 C 10.988281 23.796875 10.117188 46.191406 10.117188 46.191406 C 10.117188 47.332031 9.109375 48.210938 7.980469 48.058594 L 7.75 48.027344 C 6.816406 47.898438 6.117188 47.101562 6.117188 46.160156 C 6.117188 46.160156 5.246094 23.792969 4.171875 23.792969 C 3.09375 23.792969 2.226562 48.191406 2.226562 48.191406 C 2.226562 51.234375 2.898438 55.929688 6.203125 58.652344 C 8.171875 60.277344 8.628906 62.050781 8.667969 62.789062 L 8.667969 134.28125 C 8.667969 136.566406 10.542969 138.4375 12.824219 138.4375 C 15.109375 138.4375 16.984375 136.566406 16.984375 134.28125 L 16.984375 63.097656 L 16.988281 63.097656 C 16.976562 62.941406 16.988281 62.800781 16.984375 62.648438 L 16.984375 62.140625 C 17.078125 60.132812 17.902344 58.992188 18.800781 58.242188 C 22.183594 55.421875 22.183594 51.011719 22.183594 48.222656 C 22.160156 48.222656 21.292969 23.796875 20.214844 23.796875 Z M 20.214844 23.796875 " fill-opacity="1" fill-rule="nonzero"/></g></svg>